<svg width="85" height="248" viewBox="0 0 85 248" fill="none" xmlns="http://www.w3.org/2000/svg">
<path d="M75.973 56.6991C75.5109 60.7319 73.3685 65.731 70.7009 70.6321C70.0288 71.8783 69.3146 73.1176 68.5865 74.3289C67.6693 75.8692 66.724 77.3605 65.7998 78.7818C64.9247 80.1191 64.0635 81.3864 63.2513 82.5557C60.0936 87.1066 57.5941 90.2363 57.5941 90.2363L50.1095 67.7264L55.6337 60.0458L57.258 57.7773L58.8684 55.5368L60.5067 53.2543L62.2361 50.8528C62.6702 39.0973 60.9548 20.9003 65.3798 19.7521C65.3798 19.7521 70.8199 19.15 72.7383 19.9691C76.8202 21.7195 77.7724 40.9037 75.973 56.6991Z" fill="#0D527C"/>
<path d="M65.3176 18.5673C65.3176 19.0434 65.3386 19.4565 65.3946 19.8205C65.4366 20.1636 65.5136 20.4647 65.6117 20.7237C66.1998 22.2431 67.6491 22.3061 69.7005 22.4181C71.4369 22.5091 72.3751 22.012 72.6762 20.8708C72.7742 20.5347 72.8092 20.1496 72.7882 19.7085C72.7882 19.4214 72.7532 19.1134 72.7042 18.7843C72.6692 18.5183 72.6202 18.2452 72.5642 17.9511C72.4521 17.44 72.3121 16.8869 72.1371 16.2848C71.787 15.0805 68.2442 14.8495 68.2442 14.8495C67.173 14.7514 65.6747 14.9755 65.5136 16.1938C65.4366 16.7819 65.3806 17.307 65.3526 17.7831C65.3316 18.0632 65.3176 18.3222 65.3176 18.5673Z" fill="#105E99"/>
<path d="M74.3928 7.03616C73.8334 7.6733 72.9078 10.1532 72.9078 10.1532C72.5192 12.2369 72.2938 13.3872 71.5635 14.3429C70.8402 15.2993 71.2211 16.986 71.2211 16.986C71.2211 16.986 68.3918 18.4402 66.0127 16.6443C66.0127 16.6443 66.262 14.9731 66.0127 14.4984C65.5233 13.5504 63.9529 13.0449 63.4165 11.1327C62.8802 9.21293 61.2713 7.07467 61.2713 7.07467C61.2713 7.07467 61.7299 6.07976 62.5694 6.68609C63.4165 7.30082 63.9529 8.83205 64.4115 8.98748C64.5053 9.01829 64.5984 9.0421 64.6915 9.0498C64.6915 9.0498 64.6992 9.0498 64.7146 9.0575C65.0647 9.10371 65.4225 9.02599 65.6395 8.81595C65.6556 8.80825 65.6787 8.79284 65.6941 8.76974C66.4636 7.87564 66.6428 5.24798 66.6113 4.07452C66.5651 2.44177 66.6267 0.187983 67.6224 0.568865C68.6173 0.949747 67.7078 1.85924 68.4772 5.45802L68.8504 5.50493C68.9204 5.76119 69.6045 3.32046 69.7676 1.02746C69.8838 -0.550676 70.918 0.0325489 71.1434 0.529657C71.3766 1.02746 71.0265 2.5972 70.9572 3.73985C70.9026 4.49461 70.8402 5.27948 70.8017 5.74578L71.2365 5.98664C72.807 3.25045 72.2707 2.1155 73.1879 2.06089C74.0973 2.00698 73.7711 4.31538 73.281 5.19407C73.0709 5.57495 72.8693 6.36752 72.7061 7.14469C74.3151 5.28718 74.1366 4.31537 74.8745 4.4323C75.6363 4.55623 74.9522 6.39902 74.3928 7.03616Z" fill="#FF8B66"/>
<path d="M67.4433 11.3193C66.8993 9.81891 64.9557 9.13486 64.7148 9.05715C65.0649 9.10406 65.422 9.02634 65.6397 8.8163C67.5441 9.67118 67.4433 11.3193 67.4433 11.3193Z" fill="#EF6E4B"/>
<path d="M65.7999 78.7818C64.9247 80.1191 64.0635 81.3864 63.2513 82.5557C62.6142 67.3204 57.6011 61.6842 55.6337 60.0458L57.258 57.7773C59.5265 59.6117 64.4976 65.1219 65.7999 78.7818Z" fill="#CFD8DC"/>
<path d="M70.7009 70.6321C70.0288 71.8783 69.3146 73.1176 68.5864 74.3289C66.416 61.187 60.1706 56.398 58.8683 55.5368L60.5067 53.2543C62.2991 54.4516 68.0053 59.0796 70.7009 70.6321Z" fill="#CFD8DC"/>
<path d="M14.2267 148.272C11.8182 147.523 1.23189 131.86 0.0836394 122.8C-0.497486 118.165 2.01606 108.636 5.55882 99.0512C5.95791 97.966 6.371 96.8738 6.79809 95.7955C7.40722 94.2482 8.03736 92.7149 8.6815 91.2095C9.1506 90.1103 9.6267 89.0251 10.1098 87.9678C12.3643 82.9968 14.6888 78.5998 16.7192 75.6312L19.5548 102.237L20.045 106.795L20.472 110.828L20.416 110.919L18.9387 113.306L14.2267 120.917C14.2267 120.917 19.1348 138.54 20.472 140.213C21.8163 141.886 16.6352 149.021 14.2267 148.272Z" fill="#0D527C"/>
<path d="M20.0449 106.795C15.2769 102.321 10.964 95.2844 8.68149 91.2095C9.15059 90.1103 9.62669 89.0251 10.1098 87.9678C11.5381 90.6424 15.2559 97.2728 19.5548 102.237L20.0449 106.795Z" fill="#CFD8DC"/>
<path d="M20.416 110.919L18.9387 113.306C13.1275 109.462 8.36643 103.266 5.55882 99.0512C5.95791 97.966 6.37099 96.8738 6.79809 95.7955C9.21361 99.6183 14.2617 106.816 20.416 110.919Z" fill="#CFD8DC"/>
<path d="M18.2017 141.739C18.2017 141.739 14.8851 143.187 15.2352 146.279L20.4751 151.035L21.7116 146.279L18.2017 141.739Z" fill="#FF8B66"/>
<path d="M84.063 246.702C84.063 247.464 83.9853 248 83.9853 248H61.9627C61.9627 247.565 61.9711 247.13 61.9942 246.702C62.2428 240.942 64.0618 235.943 64.0618 235.943L69.5657 233.58C70.0397 236.417 71.26 238.229 72.7913 239.411C73.196 239.729 73.6154 239.994 74.0508 240.219C74.2525 240.328 74.4548 240.429 74.6649 240.522C75.1235 240.732 75.5975 240.903 76.0722 241.043C78.0151 241.634 79.9818 241.758 81.3576 241.968C83.7052 242.333 84.063 245.046 84.063 246.702Z" fill="#F24052"/>
<path d="M84.063 246.702C84.063 247.464 83.9853 248 83.9853 248H61.9627C61.9627 247.565 61.9711 247.13 61.9942 246.702H84.063Z" fill="#ADBEC4"/>
<path d="M74.0508 240.219L70.996 241.198L70.3505 240.079L72.7912 239.41C73.1959 239.729 73.6153 239.993 74.0508 240.219Z" fill="#ADBEC4"/>
<path d="M76.0718 241.043L74.012 242.411L72.7447 241.913L74.6645 240.522C75.1231 240.732 75.5978 240.903 76.0718 241.043Z" fill="#ADBEC4"/>
<path d="M44.9715 246.702C44.9169 247.448 44.723 248 44.723 248H30.0541C29.8679 247.573 29.7356 247.145 29.6424 246.702C28.1966 239.682 37.9441 231.093 37.9441 231.093L41.0381 235.221C41.0381 235.221 40.6803 241.828 43.3003 243.204C44.8707 244.028 45.0724 245.582 44.9715 246.702Z" fill="#F24052"/>
<path d="M29.6422 246.702H44.9713C44.9174 247.448 44.7228 248 44.7228 248H30.0546C29.8677 247.573 29.7353 247.145 29.6422 246.702Z" fill="#ADBEC4"/>
<path d="M42.6299 242.678C42.6299 242.678 36.4496 241.269 33.6322 243.093V242.073C33.6322 242.073 38.8309 239.547 42.6299 242.678Z" fill="#ADBEC4"/>
<path d="M41.4055 241.11C41.4055 241.11 37.4594 239.306 33.6317 241.11L34.0693 240.081C34.0693 240.081 38.6406 238.353 41.4055 241.11Z" fill="#ADBEC4"/>
<path d="M20.4749 133.239C20.4749 147.193 21.8486 161.404 22.2007 165.009C22.5536 168.613 26.2861 208.884 26.8112 224.462C27.0801 232.442 29.6419 242.101 29.6419 242.101C29.6419 242.101 37.2449 235.957 41.5508 240.522L42.6297 234.295L40.6119 229.393C40.6119 229.393 42.7684 225.337 41.004 222.187C39.2389 219.036 38.6977 151.689 38.6977 151.689L42.0941 151.471L59.7912 229.393V233.832C59.7912 233.832 61.9322 239.484 61.963 243.093L73.4924 239.41L71.7273 234.295L72.2006 226.992L68.968 217.468C68.968 217.468 57.0123 142.982 57.928 134.624L20.4749 133.239Z" fill="#8B383E"/>
<path d="M21.7113 141.739C21.7113 141.739 18.3681 147.271 18.2015 151.035L23.1116 158.648L21.7113 141.739Z" fill="#8B383E"/>
<path d="M54.7935 64.7415C54.7935 64.7415 53.0081 69.5165 40.0903 70.1663C28.2619 70.7614 18.8176 73.6635 16.7172 75.6345C14.6167 77.6054 20.0863 143.01 20.0863 143.01C30.0228 142.315 40.9893 153.442 59.4264 149.196C59.4264 149.196 56.6258 118.565 57.0928 103.103C57.5598 87.6414 54.7935 64.7415 54.7935 64.7415Z" fill="#F24052"/>
<path d="M42.2642 64.7415C42.2642 64.7415 41.1811 68.3207 42.8957 70.1663C42.8957 70.1663 40.0573 75.7318 33.7294 71.1738C33.7294 71.1738 34.9336 68.1302 33.7294 66.1551L42.2642 64.7415Z" fill="#EF6E4B"/>
<path d="M29.8775 55.7378C29.8775 55.7378 27.4991 53.3643 27.2064 56.139C26.8675 59.3534 29.7865 60.648 30.3571 59.6258C30.9277 58.6029 29.8775 55.7378 29.8775 55.7378Z" fill="#FF8B66"/>
<path d="M46.5311 55.9051C46.5311 55.9051 48.9096 53.5316 49.2022 56.3063C49.5411 59.5207 46.6222 60.8153 46.0515 59.7931C45.4809 58.7708 46.5311 55.9051 46.5311 55.9051Z" fill="#FF8B66"/>
<path d="M37.9537 67.3804C32.6766 67.3804 29.6982 63.9335 29.6982 53.5958C29.6982 48.2634 32.412 44.9923 38.322 44.9923C44.2326 44.9923 46.7224 48.2627 46.7224 53.5958C46.7224 64.7044 43.4051 67.3804 37.9537 67.3804Z" fill="#FF8B66"/>
<path d="M44.9746 57.2827C45.067 57.8134 44.6042 58.3371 43.9412 58.4526C43.2782 58.5682 42.6648 58.2321 42.5724 57.7021C42.48 57.1714 42.9428 56.6476 43.6058 56.5321C44.2696 56.4166 44.8822 56.7527 44.9746 57.2827Z" fill="#DB614D"/>
<path d="M34.1209 57.5716C34.0859 58.1087 33.5125 58.5091 32.841 58.465C32.1689 58.4216 31.6529 57.9504 31.6879 57.4127C31.7229 56.8757 32.2956 56.4759 32.9678 56.5193C33.6399 56.5634 34.1559 57.0346 34.1209 57.5716Z" fill="#DB614D"/>
<path d="M43.2641 51.8344C43.1955 51.8449 43.1227 51.8288 43.0632 51.7826C42.223 51.1371 40.9627 51.366 40.9438 51.3688C40.8031 51.3919 40.663 51.3016 40.6364 51.1581C40.6084 51.0145 40.703 50.8773 40.8465 50.85C40.9018 50.8381 42.3595 50.5769 43.3845 51.3646C43.4994 51.4535 43.5218 51.6195 43.4328 51.735C43.3901 51.7903 43.3285 51.8246 43.2641 51.8344Z" fill="#CE364C"/>
<path d="M33.1644 51.8711C33.1 51.8634 33.0377 51.8312 32.9929 51.7766C32.9011 51.6639 32.9173 51.4979 33.0293 51.4055C34.0298 50.5863 35.4931 50.8034 35.5498 50.8132C35.6941 50.8356 35.7921 50.97 35.7697 51.1143C35.7473 51.2585 35.6072 51.3537 35.4686 51.3341C35.4595 51.3313 34.1754 51.1479 33.3646 51.8137C33.3051 51.8613 33.2337 51.8795 33.1644 51.8711Z" fill="#CE364C"/>
<path d="M42.7185 54.813C42.7185 55.4683 42.4231 55.9997 42.059 55.9997C41.6949 55.9997 41.4002 55.4683 41.4002 54.813C41.4002 54.1576 41.6949 53.6262 42.059 53.6262C42.4231 53.6262 42.7185 54.1576 42.7185 54.813Z" fill="#1A4850"/>
<path d="M35.6714 54.813C35.6714 55.4683 35.3767 55.9997 35.0126 55.9997C34.6478 55.9997 34.3531 55.4683 34.3531 54.813C34.3531 54.1576 34.6478 53.6262 35.0126 53.6262C35.3767 53.6262 35.6714 54.1576 35.6714 54.813Z" fill="#1A4850"/>
<path d="M32.7419 46.8219C32.7419 46.8219 35.7112 47.2686 43.7734 46.6896C43.7734 46.6896 44.3784 49.4244 45.7381 50.6342C45.7381 50.6342 46.5922 54.4851 46.5138 57.3207C46.5138 57.3207 51.6424 41.8977 37.4532 42.3003C23.0294 42.7099 29.8796 57.0182 29.8796 57.0182C29.8796 57.0182 29.9651 54.8344 30.4363 52.4119C30.4363 52.4119 32.3491 49.9495 32.7419 46.8219Z" fill="#CE364C"/>
<path d="M38.2873 58.2425L37.8924 57.8448L38.9364 56.8072C37.924 55.3767 37.9296 52.065 37.9303 51.9173L38.4911 51.9201C38.4911 51.9558 38.4855 55.5189 39.5189 56.6384L39.7023 56.8373L38.2873 58.2425Z" fill="#DB614D"/>
<path d="M34.7852 59.9683C34.7852 59.9683 39.979 60.1874 42.601 59.4936C42.601 59.4936 43.0645 63.2709 39.0394 63.4585C34.7852 63.6567 34.7852 59.9683 34.7852 59.9683Z" fill="#1A4850"/>
<path d="M54.6005 61.4799C50.7679 66.9284 45.4131 68.5514 45.4131 68.5514C45.4131 68.5514 46.5985 73.951 39.4016 74.4551C32.739 74.9221 31.2274 70.5405 31.2274 70.5405C31.2274 70.5405 20.8364 72.2965 17.5107 74.5132C14.185 76.7305 13.3098 123.345 15.2352 127.956C17.1606 132.568 24.6816 137.434 42.1007 136.226C59.5198 135.018 60.57 129.364 60.2199 126.941C59.8699 124.516 61.3836 94.2133 60.2696 83.3806C58.4934 66.1065 54.6005 61.4799 54.6005 61.4799Z" fill="#105E99"/>
<path d="M18.2017 131.699V136.591C18.2017 136.591 44.5554 139.59 59.302 133.541L58.6012 131.353C58.6012 131.353 31.8638 134.255 18.2017 131.699Z" fill="#0D527C"/>
<path d="M31.2276 70.5407C31.2276 70.5407 32.4396 69.6879 32.8562 69.8398C32.8562 69.8398 35.1884 74.5022 39.4978 73.7544C43.8073 73.0073 44.1881 68.9759 44.1881 68.9759C44.1881 68.9759 44.784 67.8983 45.4127 68.5509C46.0414 69.2034 46.2571 75.1547 39.4978 75.5048C32.7386 75.8548 31.117 71.7611 31.2276 70.5407Z" fill="#0D527C"/>
<path d="M52.731 78.7803L46.4157 80.3507L47.4337 85.2651C47.4337 85.2651 50.5487 83.3313 51.865 85.3519C52.6456 86.5513 51.615 90.9251 47.4337 89.2329V90.8411C47.4337 90.8411 52.0043 91.8864 53.4046 87.9635C54.8049 84.0398 52.4097 82.099 48.4447 83.3397L48.1346 81.6229L52.8795 80.2709L52.731 78.7803Z" fill="#CFD8DC"/>
</svg>
