<svg width="80" height="181" viewBox="0 0 80 181" fill="none" xmlns="http://www.w3.org/2000/svg">
<path d="M15.4767 103.389C21.539 100.666 64.867 111.912 64.867 111.912C64.867 111.912 53.5427 62.2962 55.0613 43.3669C56.58 24.4376 24.0094 32.9455 24.0094 32.9455L15.4767 103.389Z" fill="#4C1E27"/>
<path d="M49.709 122.732C49.709 122.732 55.7323 137.364 47.429 169.946H42.5209C42.5209 169.946 41.0079 127.229 39.9993 122.732C39.2109 119.181 37.7193 107.021 37.2292 96.6433V96.6007C37.1866 95.6276 37.151 94.6758 37.1226 93.7453C36.8456 93.8093 36.5544 93.8448 36.2561 93.8732C36.0146 93.8874 35.7731 93.8945 35.5174 93.8803C35.4676 93.8803 35.4108 93.8732 35.354 93.8732C35.6594 98.3906 35.7802 103.462 35.7802 108.136C35.7802 114.735 35.5387 120.523 35.2546 122.782C34.6792 127.257 37.7832 170.031 37.7832 170.031L32.8609 169.867C21.4109 136.952 25.5306 122.455 25.5306 122.455C25.5306 122.455 15.0609 92.8291 17.412 82.3735C19.7559 71.9251 25.2394 64.1829 25.2394 64.1829L34.3809 65.6745L34.459 65.5112L35.1977 65.6532H35.3043V65.6745L44.7583 67.5355C44.7583 67.5355 46.9247 71.1296 49.3752 76.8545C49.4888 77.1316 49.6096 77.4086 49.7303 77.6927C50.6963 80.0224 51.6979 82.6718 52.6141 85.5485C55.9738 96.0893 49.709 122.732 49.709 122.732Z" fill="#CFD8DC"/>
<path d="M34.9349 88.7377C35.2687 90.4282 35.702 92.1543 36.256 93.8732C36.0145 93.8874 35.773 93.8945 35.5173 93.8803C31.7173 81.7982 33.5853 69.5314 33.6137 69.4036L34.3098 69.5172C34.2956 69.6237 32.9887 78.2183 34.7999 88.0417C35.0059 87.9777 35.2687 87.8499 35.496 87.5587C35.8583 87.0899 36.1779 86.0741 35.6239 83.922C34.4235 79.2553 35.5386 70.0712 35.5884 69.6877L36.2915 69.7729C36.2844 69.8652 35.148 79.2127 36.3129 83.7444C36.8172 85.7048 36.7248 87.1396 36.0429 88.0132C35.6878 88.4607 35.2545 88.6525 34.9349 88.7377Z" fill="#B5C4C9"/>
<path d="M49.7304 77.6927C44.2185 76.4284 41.3773 69.9008 41.2566 69.6024L41.91 69.3183C41.9384 69.3893 44.5381 75.3629 49.3752 76.8545C49.4889 77.1315 49.6096 77.4086 49.7304 77.6927Z" fill="#B5C4C9"/>
<path d="M43.0827 0.154392C51.9166 1.37752 54.3898 8.0557 54.2123 14.1749C54.0347 20.2941 53.3244 52.5698 53.3244 52.5698C53.3244 52.5698 36.6162 57.7961 31.0311 44.4611C25.4454 31.126 24.8239 23.6743 28.5437 19.0056C29.3044 18.0502 29.7235 15.1664 30.1511 11.4353C31.019 3.86568 35.1927 -0.938042 43.0827 0.154392Z" fill="#0C476B"/>
<path d="M68.1814 81.2621C68.3 84.8121 65.6314 93.9777 64.8665 92.3909C62.313 87.0943 68.1814 81.2621 68.1814 81.2621Z" fill="#4C1E27"/>
<path d="M2.8344 52.5696C2.36064 50.8365 8.05932 42.0295 9.64967 43.2449C9.64967 43.2449 9.10843 56.0451 7.33269 56.4002C5.55696 56.7553 2.8344 52.5696 2.8344 52.5696Z" fill="#4C1E27"/>
<path d="M22.5943 24.8573L6.00259 56.0918C6.00259 56.0918 6.44511 62.2223 9.46385 62.9113C12.4826 63.6003 24.2912 51.1915 24.2912 51.1915L22.5943 24.8573Z" fill="#662C33"/>
<path d="M58.5651 75.7013C59.9637 80.6613 67.262 92.0892 71.7787 96.4007L74.1092 94.4303C74.1092 94.4303 67.3153 81.1919 66.4139 76.3186C65.5125 71.4459 63.1245 68.6367 59.7201 68.7994C56.3164 68.962 58.2711 74.6579 58.5651 75.7013Z" fill="#FF8B66"/>
<path d="M5.26595 54.0543C3.57687 49.1852 3.02853 35.6378 4.26728 29.5172L7.30592 29.8006C7.30592 29.8006 9.30397 44.5456 11.3517 49.0588C13.3988 53.572 13.0465 57.2421 10.1606 59.0554C7.27537 60.8688 5.62181 55.0785 5.26595 54.0543Z" fill="#FF8B66"/>
<path d="M57.7407 29.7272C57.7407 29.7272 61.4996 40.8923 62.0586 59.9516C62.0586 59.9516 62.9727 60.8992 62.8541 61.6094C62.7362 62.3197 63.8016 63.817 63.5644 64.1338C63.3279 64.4506 68.1813 81.2619 68.1813 81.2619C68.1813 81.2619 64.1568 85.0491 64.8671 92.3907L56.8166 75.6967C56.8166 75.6967 54.403 33.952 57.7407 29.7272Z" fill="#662C33"/>
<path d="M24.2912 67.7947C24.2912 67.7947 26.8518 70.7169 33.9618 71.4755C41.0719 72.2341 45.4743 69.3197 45.0488 67.3586C44.6234 65.3975 25.5527 65.0857 25.5527 65.0857L24.2912 67.7947Z" fill="#662C33"/>
<path d="M44.4458 67.8842C44.4458 67.8842 34.0258 71.5564 24.1953 64.1338C24.1953 64.1338 22.3699 26.609 25.8432 24.0946C27.3632 22.9936 30.3607 23.8744 33.2516 25.2168C36.9806 26.95 40.5463 29.4431 40.5463 29.4431C40.5463 29.4431 47.017 28.5268 52.117 29.0879C55.363 29.436 58.0479 30.3878 58.1687 32.54C58.4883 38.0874 44.4458 67.8842 44.4458 67.8842Z" fill="#FF8B66"/>
<path d="M52.394 29.1732C50.2063 28.9459 49.8014 30.6009 47.6137 31.3964C45.4189 32.199 42.7908 32.817 41.7964 32.9093C40.802 33.0017 40.2764 34.2376 40.2764 34.2376C40.2764 34.2376 39.9212 32.5684 39.3814 32.4263C38.8558 32.2914 34.2176 27.6247 33.2516 25.2169C36.9806 26.95 40.5463 29.4431 40.5463 29.4431C40.5463 29.4431 47.0171 28.5268 52.117 29.088C52.2946 29.1448 52.394 29.1732 52.394 29.1732Z" fill="#EF6E4B"/>
<path d="M39.7096 17.0309C39.7096 17.0309 40.5392 27.0496 37.7513 28.4823C37.7513 28.4823 39.8111 32.2795 45.3337 29.9682C45.3337 29.9682 44.4003 24.815 48.0527 18.6973C50.4989 14.601 39.7096 17.0309 39.7096 17.0309Z" fill="#EF6E4B"/>
<path d="M49.7728 13.5911C49.7728 13.5911 51.8469 11.1804 52.322 13.7779C52.8732 16.7867 50.2111 18.2187 49.5995 17.2946C48.9879 16.3705 49.7728 13.5911 49.7728 13.5911Z" fill="#FF8B66"/>
<path d="M34.0689 14.9458C34.0689 14.9458 31.6539 12.8775 31.5772 15.5162C31.4877 18.574 34.336 19.5862 34.8012 18.5804C35.2665 17.5746 34.0689 14.9458 34.0689 14.9458Z" fill="#FF8B66"/>
<path d="M42.988 25.1587C47.9679 24.7794 50.5306 21.3125 49.7876 11.5566C49.4048 6.5249 46.6091 3.63258 41.0311 4.05734C35.4532 4.48209 33.3394 7.74731 33.7229 12.7805C34.5206 23.263 37.844 25.5508 42.988 25.1587Z" fill="#FF8B66"/>
<path d="M35.6369 16.1342C35.5879 16.6413 36.0616 17.1023 36.6959 17.1641C37.3302 17.2252 37.8842 16.8644 37.934 16.3572C37.983 15.8501 37.5085 15.3891 36.8742 15.3273C36.2399 15.2655 35.6859 15.627 35.6369 16.1342Z" fill="#DB614D"/>
<path d="M45.9003 15.6267C45.9721 16.131 46.5417 16.4677 47.1725 16.3782C47.8032 16.2887 48.2571 15.8064 48.1853 15.3021C48.1129 14.7978 47.5439 14.4611 46.9132 14.5513C46.2817 14.6408 45.8286 15.1224 45.9003 15.6267Z" fill="#DB614D"/>
<path d="M37.4047 10.876C37.5063 10.9236 37.6298 10.898 37.7037 10.8078C38.3373 10.0322 39.5547 9.96968 39.5668 9.96968C39.7046 9.96329 39.8112 9.84609 39.8055 9.709C39.7991 9.57121 39.6833 9.46466 39.5448 9.47035C39.4858 9.47319 38.0908 9.54564 37.3173 10.4925C37.2299 10.5983 37.2456 10.756 37.3521 10.8433C37.3685 10.8568 37.3869 10.8675 37.4047 10.876Z" fill="#0C476B"/>
<path d="M44.6187 9.55246C44.6585 9.57093 44.7032 9.57945 44.7501 9.57448C44.7622 9.57306 45.9761 9.45231 46.7197 10.1214C46.822 10.2145 46.9797 10.2059 47.072 10.1029C47.1637 10.0007 47.1559 9.84297 47.0536 9.75063C46.1451 8.93095 44.7558 9.07159 44.6968 9.07798C44.5597 9.0929 44.4617 9.21578 44.4759 9.35287C44.4859 9.44236 44.542 9.51695 44.6187 9.55246Z" fill="#0C476B"/>
<path d="M38.1601 13.5081C38.2077 14.1268 38.5238 14.6069 38.8675 14.5807C39.2113 14.5544 39.4514 14.0316 39.4045 13.4137C39.3576 12.795 39.0408 12.3148 38.6971 12.3411C38.3533 12.3674 38.1132 12.8895 38.1601 13.5081Z" fill="#1A4850"/>
<path d="M45.1832 13.0018C45.2301 13.6205 45.5469 14.1006 45.8907 14.0744C46.2345 14.0481 46.4745 13.5253 46.4277 12.9074C46.3801 12.2887 46.064 11.8085 45.7195 11.8348C45.3764 11.8611 45.1363 12.3832 45.1832 13.0018Z" fill="#1A4850"/>
<path d="M44.6411 19.0464C44.6411 19.0464 41.5726 19.7162 39.9134 19.0052C39.9134 19.0052 40.9909 21.2334 42.6693 20.8981C44.3478 20.5629 44.6411 19.0464 44.6411 19.0464Z" fill="#1A4850"/>
<path d="M39.811 13.0737C39.811 13.0737 39.2414 11.5849 38.6511 11.7397C38.0616 11.8946 37.7071 13.2342 37.7071 13.2342L36.7873 12.8329L37.6801 12.8812C37.6801 12.8812 38.0367 11.4854 38.6284 11.4379C39.4701 11.3697 39.811 13.0737 39.811 13.0737Z" fill="#1A4850"/>
<path d="M44.6604 12.8918C44.6604 12.8918 44.9978 11.3342 45.6044 11.3981C46.2117 11.4613 46.7643 12.7313 46.7643 12.7313L47.6124 12.1957L46.7373 12.379C46.7373 12.379 46.1734 11.0529 45.5817 11.0955C44.7393 11.1559 44.6604 12.8918 44.6604 12.8918Z" fill="#1A4850"/>
<path d="M41.9446 16.6919C42.054 16.743 42.1754 16.7821 42.3068 16.8069L42.4077 16.2778C41.9574 16.1925 41.8402 15.9269 41.821 15.7195C41.794 15.4261 41.9517 15.1385 42.1101 15.0767C42.2031 15.0411 42.3061 15.0973 42.4191 15.245L42.8474 14.9183C42.4723 14.426 42.0703 14.5141 41.9148 14.5752C41.5141 14.7315 41.2378 15.2556 41.2847 15.7685C41.3231 16.1861 41.5624 16.5136 41.9446 16.6919Z" fill="#DB614D"/>
<path d="M41.7966 4.7836C41.7966 4.7836 35.7449 15.6674 32.5514 14.1808C32.5514 14.1808 31.7026 2.53623 40.945 2.53623C50.1873 2.53623 52.0177 7.73913 51.9908 12.8916C51.9908 12.8916 50.6987 14.7973 49.5552 14.5267C49.5552 14.5267 50.99 5.00237 41.7966 4.7836Z" fill="#0C476B"/>
<path d="M79.5691 96.2876C75.7357 95.8181 75.3748 92.5642 72.219 93.4301C71.567 93.6091 71.172 93.9841 70.9355 94.4053C70.4823 95.2108 70.6166 96.2116 71.1507 96.9652C72.3774 98.6962 73.5494 101.232 74.0281 102.559C74.5829 104.075 74.9352 103.332 74.9352 103.332C74.9749 103.476 75.0048 103.616 75.0346 103.754C75.2747 104.809 75.2932 105.622 75.8543 104.985C76.4928 104.271 75.9495 101.246 75.9495 101.246C77.7692 105.376 76.9936 106.276 77.6343 105.69C78.5122 104.894 77.4766 101.089 77.4453 100.976C78.9526 103.252 79.1245 104.742 79.5386 104.016C79.9577 103.279 77.831 98.9235 77.0256 97.3289C76.8452 96.9695 76.7272 96.7486 76.7272 96.7486C79.8241 97.3381 79.5691 96.2876 79.5691 96.2876Z" fill="#FF8B66"/>
<path d="M77.0254 97.3288C76.845 96.9694 76.7271 96.7485 76.7271 96.7485C76.7271 96.7485 75.4983 97.2166 74.2041 96.1078C74.2041 96.1078 74.9634 97.8616 77.0254 97.3288Z" fill="#EF6E4B"/>
<path d="M74.2781 100.192C74.401 100.551 75.1269 102.601 74.9352 103.332C74.9749 103.477 75.0048 103.616 75.0346 103.754C75.7797 103.37 74.4827 100.611 74.2781 100.192Z" fill="#EF6E4B"/>
<path d="M58.1758 36.659C56.876 44.4438 52.7207 73.3883 34.9066 69.6593C34.8284 69.6451 34.7432 69.6237 34.6651 69.6095C34.4236 69.5598 34.1892 69.5101 33.9619 69.4604C17.2842 65.8663 22.2491 64.1332 22.2491 64.1332C22.2491 64.1332 15.4765 22.4247 28.8123 23.7033C28.8123 23.7033 38.6214 35.9842 38.8416 40.8711C38.8629 41.141 38.8416 41.3967 38.7919 41.6169C38.8345 41.4819 39.0547 40.8924 39.8715 39.8482C41.3987 37.902 45.0496 34.3648 53.6228 29.3075C53.6228 29.3075 59.4756 28.8671 58.1758 36.659Z" fill="#FFB878"/>
<path d="M52.394 28.4624C52.394 28.4624 47.0036 45.0968 47.0426 56.4615C47.0817 67.8262 62.0582 114.043 62.0582 114.043C62.0582 114.043 63.8013 113.333 64.8667 111.912C64.8667 111.912 58.229 61.4911 58.1744 56.1639C58.1189 50.8367 59.3172 32.867 57.7404 29.7275C57.7404 29.7275 56.9669 28.7238 52.394 28.4624Z" fill="#8B383E"/>
<path d="M30.5121 24.1258C30.5121 24.1258 31.0448 44.4104 30.5121 48.5336C29.9794 52.6562 25.8142 75.5539 23.52 83.3913C21.225 91.2294 18.3427 107.296 18.3427 107.296L15.4766 103.389C15.4766 103.389 13.676 87.5941 15.4766 79.6033C17.2772 71.6125 19.3499 65.889 19.5566 64.1338C19.7632 62.3787 18.3228 36.7016 22.5945 24.8574C22.5945 24.8574 26.3214 22.3203 30.5121 24.1258Z" fill="#8B383E"/>
<path d="M39.8715 39.8482C39.5732 41.1765 38.8984 42.7391 38.2023 44.3728C37.3642 46.319 36.4976 48.3291 36.2916 49.9344C36.178 50.8578 36.1851 52.2784 36.1922 54.0754C36.2064 58.188 36.2348 64.1829 34.665 69.6095C34.4235 69.5598 34.1891 69.5101 33.9619 69.4604C35.5174 64.119 35.4961 58.1596 35.4819 54.0754C35.4748 52.2571 35.4677 50.8152 35.5884 49.8421C35.8086 48.1445 36.6894 46.0846 37.5488 44.0887C38.0318 42.9593 38.5077 41.8584 38.8416 40.8711C38.8629 41.141 38.8416 41.3967 38.7918 41.6169C38.8345 41.4819 39.0547 40.8924 39.8715 39.8482Z" fill="#F2A668"/>
<path d="M9.64943 43.2452C9.64943 43.2452 5.32019 55.1312 2.83417 52.5699C2.83417 52.5699 5.91258 62.438 9.46405 62.9118C13.0155 63.3848 14.6762 49.1789 14.6762 49.1789C14.6762 49.1789 11.5949 44.0045 11.2398 44.4612C10.8846 44.9172 10.766 46.0423 10.766 46.0423L9.64943 43.2452Z" fill="#662C33"/>
<path d="M35.2021 71.5987C38.2308 72.7671 42.6701 86.9332 42.2262 97.4299C42.2262 97.4299 42.315 98.5643 43.3804 97.4299C43.3804 97.4299 41.6473 71.9297 35.2774 69.7292L35.2021 71.5987Z" fill="#662C33"/>
<path d="M35.9428 69.7291C35.9428 69.7291 36.3519 72.2343 33.9618 72.0567C31.5717 71.8791 31.3934 70.0182 32.4588 69.1282C33.525 68.2389 35.9428 69.7291 35.9428 69.7291Z" fill="#4C1E27"/>
<path d="M29.5296 18.6366C26.1998 21.5367 25.9782 24.7976 29.3521 30.7144C32.726 36.6304 32.0157 43.8981 32.0157 43.8981C32.0157 43.8981 38.7492 37.2342 33.9619 24.8573L29.5296 18.6366Z" fill="#0C476B"/>
<path d="M31.2337 168.755C31.2337 168.755 32.878 172.404 32.3709 174.851C32.064 176.329 30.4765 178.225 31.7494 180.593H41.7283C41.7283 180.593 42.8846 177.929 40.5414 175.443C39.2451 174.069 38.2898 167.689 38.2898 167.689C37.1746 167.867 37.4608 168.755 37.4608 168.755C37.4608 168.755 37.4949 165.746 34.9748 166.15C31.9539 166.634 32.6664 169.287 32.6664 169.287C32.6664 169.287 32.3141 168.318 31.2337 168.755Z" fill="#4C1E27"/>
<path d="M32.1418 176.923C32.1418 176.923 34.8643 173.388 40.4287 176.213C40.4287 176.213 40.6653 178.699 38.0606 178.225C35.4567 177.752 33.9175 179.646 32.1418 176.923Z" fill="#662C33"/>
<path d="M48.4102 168.755C48.4102 168.755 47.6928 172.826 48.695 174.141C49.862 175.671 55.7219 175.848 52.8701 180.593H42.8905C42.8905 180.593 41.3541 179.577 41.9458 175.443C42.4543 171.888 41.3541 167.689 41.3541 167.689C42.4693 167.867 42.8933 168.755 42.8933 168.755C42.8933 168.755 42.8599 165.746 45.3793 166.15C48.4002 166.634 47.6878 169.287 47.6878 169.287C47.6878 169.287 48.0053 168.647 48.4102 168.755Z" fill="#4C1E27"/>
<path d="M44.1849 176.923C44.1849 176.923 47.4991 173.658 52.7326 176.775C52.7326 176.775 52.7084 178.699 50.1038 178.225C47.4998 177.752 45.9606 179.646 44.1849 176.923Z" fill="#662C33"/>
<path d="M11.0318 23.5683L9.42655 27.1695C7.82839 30.7778 7.33118 30.309 5.25712 30.7849C3.31802 31.2324 2.11052 27.7804 2.00398 26.2248C1.90454 24.9108 -0.197931 22.304 0.0151574 21.1959C0.100393 20.7485 0.391613 21.0113 0.945642 21.9133C1.59911 22.9717 2.55801 23.7175 2.55801 23.7175C3.24699 22.5171 0.50526 18.923 1.43574 17.751C1.89033 17.1828 3.15465 22.4532 3.9857 22.6094C3.9857 22.6094 4.27692 22.1975 3.86495 19.5623C3.63055 18.0493 3.37485 16.4938 3.77971 16.2026C4.51842 15.677 4.4616 18.9301 5.77564 22.3821C5.77564 22.3821 5.81115 20.7129 5.74012 19.1645C5.66909 17.751 5.45601 16.437 6.08817 16.4654C6.60668 16.4867 6.6564 18.6957 6.74164 20.1021C6.90501 22.7231 7.59399 24.6053 8.02017 25.55C8.21905 26.0046 8.36821 26.239 8.36821 26.239C10.3073 22.7018 11.0318 23.5683 11.0318 23.5683Z" fill="#FF8B66"/>
<path d="M8.3682 26.239C8.3682 26.239 6.71321 26.7717 6.26573 28.0219C6.26573 28.0219 5.91058 26.0401 8.02015 25.55C8.21904 26.0046 8.3682 26.239 8.3682 26.239Z" fill="#EF6E4B"/>
</svg>
