<svg width="99" height="221" viewBox="0 0 99 221" fill="none" xmlns="http://www.w3.org/2000/svg">
<path d="M26.2117 37.2313C17.5329 42.6293 8.22426 59.8931 5.06184 67.6391C1.89942 75.3859 4.32483 88.9601 23.9843 76.9633C43.6444 64.9658 26.2117 37.2313 26.2117 37.2313Z" fill="#CFD8DC"/>
<path d="M77.1507 38.7039C77.1507 38.7039 96.5064 55.023 98.7398 68.8027C100.973 82.5818 88.3748 86.5273 78.3888 69.4794C68.4035 52.4315 77.1507 38.7039 77.1507 38.7039Z" fill="#CFD8DC"/>
<path d="M1.75989 219.199C1.75989 220.009 1.84252 220.579 1.84252 220.579H25.2584C25.2584 220.116 25.2495 219.654 25.2249 219.199C24.9607 213.074 23.0266 207.76 23.0266 207.76L17.1745 205.247C16.6705 208.264 15.3729 210.19 13.7448 211.446C13.3145 211.785 12.8686 212.066 12.4055 212.305C12.1911 212.422 11.976 212.529 11.7526 212.628C11.265 212.851 10.761 213.033 10.2563 213.182C8.19044 213.81 6.09928 213.942 4.63644 214.166C2.1403 214.554 1.75989 217.438 1.75989 219.199Z" fill="#CFD8DC"/>
<path d="M1.75989 219.199C1.75989 220.009 1.84252 220.579 1.84252 220.579H25.2584C25.2584 220.116 25.2495 219.654 25.2249 219.199H1.75989Z" fill="#ADBEC4"/>
<path d="M12.4056 212.306L15.6536 213.347L16.34 212.157L13.7448 211.446C13.3146 211.785 12.8686 212.066 12.4056 212.306Z" fill="#ADBEC4"/>
<path d="M10.2567 213.182L12.4468 214.637L13.7943 214.107L11.753 212.628C11.2654 212.851 10.7606 213.033 10.2567 213.182Z" fill="#ADBEC4"/>
<path d="M43.3247 219.199C43.3827 219.993 43.589 220.579 43.589 220.579H59.1859C59.3839 220.125 59.5246 219.67 59.6237 219.199C61.1609 211.735 50.7967 202.602 50.7967 202.602L47.507 206.991C47.507 206.991 47.8874 214.017 45.1017 215.48C43.4319 216.356 43.2175 218.009 43.3247 219.199Z" fill="#CFD8DC"/>
<path d="M59.6239 219.199H43.3249C43.3822 219.993 43.5892 220.579 43.5892 220.579H59.1854C59.3842 220.125 59.5249 219.67 59.6239 219.199Z" fill="#ADBEC4"/>
<path d="M45.8145 214.92C45.8145 214.92 52.3857 213.422 55.3814 215.362V214.277C55.3814 214.277 49.8538 211.591 45.8145 214.92Z" fill="#ADBEC4"/>
<path d="M47.1164 213.253C47.1164 213.253 51.3121 211.335 55.382 213.253L54.9167 212.159C54.9167 212.159 50.0562 210.322 47.1164 213.253Z" fill="#ADBEC4"/>
<path d="M69.3713 98.5571C69.3713 113.394 67.9107 128.504 67.5362 132.337C67.161 136.17 63.1924 178.988 62.634 195.552C62.3481 204.037 59.6235 214.307 59.6235 214.307C59.6235 214.307 51.5402 207.774 46.9619 212.628L45.8147 206.007L47.9602 200.795C47.9602 200.795 45.6673 196.483 47.5433 193.133C49.42 189.783 49.9955 118.174 49.9955 118.174L46.3842 117.943L27.5675 200.795V205.514C27.5675 205.514 25.2909 211.524 25.2582 215.362L12.9993 211.446L14.8761 206.007L14.3728 198.242L17.81 188.115C17.81 188.115 30.5222 108.917 29.5484 100.03L69.3713 98.5571Z" fill="#105E99"/>
<path d="M28.9477 36.1161C28.9477 36.1161 37.5178 31.6055 50.1064 31.9062C62.6958 32.2077 71.1334 35.2123 73.3667 37.3087C75.6001 39.4043 70.389 109.901 70.389 109.901C70.389 109.901 47.5589 111.463 27.9553 106.948C27.9553 106.948 30.9331 82.9546 30.4366 66.515C29.94 50.0745 28.9477 36.1161 28.9477 36.1161Z" fill="#FFB878"/>
<path d="M45.4584 25.726C45.4584 25.726 46.6532 30.6483 44.8308 32.6114C44.8308 32.6114 47.8049 37.4116 54.5332 32.5652C54.5332 32.5652 53.2528 29.3291 54.5332 27.229L45.4584 25.726Z" fill="#EF6E4B"/>
<path d="M58.6289 16.8975C58.6289 16.8975 61.1578 14.3738 61.469 17.3241C61.8293 20.7419 58.7257 22.1184 58.1189 21.0315C57.5122 19.9438 58.6289 16.8975 58.6289 16.8975Z" fill="#FF8B66"/>
<path d="M40.9215 17.0754C40.9215 17.0754 38.3926 14.5517 38.0814 17.5019C37.7211 20.9197 40.8247 22.2962 41.4315 21.2093C42.0382 20.1224 40.9215 17.0754 40.9215 17.0754Z" fill="#FF8B66"/>
<path d="M50.0416 29.2767C55.6525 29.2767 58.8194 25.6118 58.8194 14.62C58.8194 8.95026 55.9339 5.47219 49.65 5.47219C43.3654 5.47219 40.7181 8.94952 40.7181 14.62C40.7181 26.4314 44.2453 29.2767 50.0416 29.2767Z" fill="#FF8B66"/>
<path d="M42.5765 18.5402C42.4783 19.1045 42.9703 19.6613 43.6753 19.7841C44.3803 19.907 45.0325 19.5496 45.1307 18.9861C45.229 18.4218 44.7369 17.865 44.0319 17.7421C43.3262 17.6193 42.6748 17.9766 42.5765 18.5402Z" fill="#DB614D"/>
<path d="M54.117 18.8474C54.1542 19.4184 54.7639 19.8442 55.4778 19.7973C56.1925 19.7512 56.7411 19.2502 56.7039 18.6784C56.6667 18.1074 56.0577 17.6823 55.3431 17.7285C54.6284 17.7754 54.0797 18.2764 54.117 18.8474Z" fill="#DB614D"/>
<path d="M44.3952 12.7471C44.4689 12.7583 44.5456 12.7412 44.6089 12.6921C45.5022 12.0057 46.8422 12.2491 46.8623 12.2521C47.012 12.2767 47.1609 12.1806 47.1892 12.028C47.2189 11.8754 47.1184 11.7295 46.9658 11.7005C46.907 11.6878 45.3571 11.4101 44.2679 12.2476C44.1451 12.3422 44.122 12.5186 44.2158 12.6414C44.2612 12.7002 44.3267 12.7367 44.3952 12.7471Z" fill="#0C476B"/>
<path d="M55.134 12.7862C55.2025 12.778 55.2687 12.7437 55.3164 12.6857C55.4146 12.5658 55.3968 12.3894 55.2776 12.2911C54.2146 11.4201 52.6579 11.6509 52.5976 11.6613C52.4443 11.6859 52.34 11.8281 52.3639 11.9814C52.3877 12.1348 52.5366 12.236 52.684 12.2159C52.6937 12.2122 54.059 12.0172 54.921 12.7251C54.9843 12.7758 55.0603 12.7951 55.134 12.7862Z" fill="#0C476B"/>
<path d="M44.9753 15.9142C44.9753 16.611 45.2895 17.1761 45.6766 17.1761C46.0637 17.1761 46.3771 16.611 46.3771 15.9142C46.3771 15.2174 46.0637 14.6524 45.6766 14.6524C45.2895 14.6524 44.9753 15.2174 44.9753 15.9142Z" fill="#1A4850"/>
<path d="M52.4683 15.9142C52.4683 16.611 52.7817 17.1761 53.1688 17.1761C53.5567 17.1761 53.8701 16.611 53.8701 15.9142C53.8701 15.2174 53.5567 14.6524 53.1688 14.6524C52.7817 14.6524 52.4683 15.2174 52.4683 15.9142Z" fill="#1A4850"/>
<path d="M56.3281 8.16248C56.3281 8.16248 52.4257 7.89224 43.8533 7.27658C43.8533 7.27658 40.7185 10.541 40.9403 18.5803C40.9403 18.5803 35.9205 4.10002 50.5742 4.10002C65.228 4.10002 58.6262 18.2587 58.6262 18.2587C58.6262 18.2587 59.0535 10.876 56.3281 8.16248Z" fill="#0C476B"/>
<path d="M49.6869 19.5607L50.1068 19.1378L48.9968 18.0346C50.0733 16.5129 50.0673 12.9924 50.0666 12.8353L49.4703 12.8383C49.4703 12.8763 49.4762 16.6648 48.3782 17.8552L48.1824 18.0666L49.6869 19.5607Z" fill="#DB614D"/>
<path d="M53.4105 21.3957C53.4105 21.3957 47.8882 21.6287 45.1002 20.8909C45.1002 20.8909 44.6074 24.9072 48.8872 25.1068C53.4105 25.3174 53.4105 21.3957 53.4105 21.3957Z" fill="#1A4850"/>
<path d="M42.7888 8.89434C42.7888 8.89434 40.3299 6.76223 40.7185 4.10008C41.1071 1.43719 46.8148 -0.588463 51.7773 0.424733C51.7773 0.424733 54.4208 -0.967387 57.9383 1.28904C61.4551 3.54621 63.8128 10.2425 60.7107 14.401C60.7107 14.401 61.438 7.33918 57.3867 9.72738C57.3867 9.72738 51.047 6.30142 42.7888 8.89434Z" fill="#0D527C"/>
<path d="M57.0245 32.3706C57.0245 32.3706 51.229 70.7931 57.0245 89.3433C57.0245 89.3433 76.4063 88.7023 78.2674 88.0621C80.1285 87.4211 81.9896 47.3094 77.1507 38.7036C77.1507 38.7036 69.2186 32.1301 57.0245 32.3706Z" fill="#F24052"/>
<path d="M97.0153 78.5025C95.2436 81.458 89.4517 84.8378 84.3523 85.9247C82.0891 86.4085 79.9674 86.4458 78.3892 85.7981C78.3892 85.7981 77.5554 77.5347 72.791 72.9861C72.791 72.9861 72.9845 72.3608 73.6098 71.5344C74.9796 69.7254 78.3967 66.9635 86.3027 67.7899C97.8119 68.9959 99.5688 74.2442 97.0153 78.5025Z" fill="#CFD8DC"/>
<path d="M63.356 32.8528C63.356 32.8528 60.1623 37.5205 56.0976 39.672C56.0976 39.672 55.9785 39.0169 55.9338 38.0193C55.9189 37.7588 55.9115 37.4684 55.9115 37.1558C55.9115 36.6421 55.9338 36.0763 56.0008 35.4882C56.0381 35.1606 56.0827 34.8256 56.1497 34.4832C56.5592 32.2722 57.6163 29.9644 60.1102 28.8998C60.1102 28.8998 60.7728 29.0561 61.5246 29.674C61.7033 29.8229 61.882 29.9942 62.0607 30.1952C62.2989 30.4706 62.5371 30.7982 62.7455 31.1927C62.8721 31.4235 62.9838 31.6692 63.0805 31.9446C63.1922 32.2201 63.2816 32.5253 63.356 32.8528Z" fill="#B72E48"/>
<path d="M63.0805 31.9446C61.614 33.6345 59.2317 35.9721 55.9338 38.0193C55.9189 37.7588 55.9115 37.4684 55.9115 37.1558C59.1201 35.1011 61.3906 32.7933 62.7455 31.1927C62.8721 31.4235 62.9838 31.6692 63.0805 31.9446Z" fill="#CFD8DC"/>
<path d="M62.0607 30.1951C60.7207 31.6989 58.7107 33.6717 56.0009 35.4881C56.0381 35.1606 56.0827 34.8256 56.1497 34.4831C58.532 32.8007 60.3187 31.0363 61.5247 29.674C61.7033 29.8229 61.882 29.9941 62.0607 30.1951Z" fill="#CFD8DC"/>
<path d="M78.3865 90.6742C78.3865 90.9273 78.3865 91.1805 78.3716 91.4187C78.3418 92.0738 78.2599 92.5949 78.0812 92.6619C77.5229 92.8704 57.9364 94.1657 57.9364 94.1657L57.6908 92.8704L57.5568 92.1408L57.3409 90.9869L57.1994 90.2573L57.0282 89.3417C64.0707 88.0984 78.2673 88.0612 78.2673 88.0612C78.2673 88.0612 78.2897 88.3367 78.3195 88.7461C78.3269 88.962 78.3418 89.2151 78.3567 89.4906C78.3716 89.8628 78.3865 90.2722 78.3865 90.6742Z" fill="#B72E48"/>
<path d="M78.3567 89.4905C70.4804 89.4087 61.7257 90.3913 57.3409 90.9869L57.1995 90.2573C61.5992 89.6618 70.3911 88.6717 78.3195 88.7461C78.3269 88.962 78.3418 89.2151 78.3567 89.4905Z" fill="#CFD8DC"/>
<path d="M78.3865 90.6742C78.3865 90.9273 78.3865 91.1805 78.3716 91.4187C70.6889 91.3368 62.1798 92.2673 57.6908 92.8704L57.5568 92.1408C62.0756 91.5378 70.6442 90.5998 78.3865 90.6742Z" fill="#CFD8DC"/>
<path d="M65.5497 52.7241L66.1698 49.5222L67.7071 52.7241H65.5497ZM67.7071 46.7633L64.6809 47.1318L61.4976 58.6849H63.9364L65.1774 54.6649L67.9714 54.5413L69.7521 57.9591L72.7946 57.3948L67.7071 46.7633Z" fill="#CFD8DC"/>
<path d="M43.0958 32.3705C43.0958 32.3705 46.0185 70.8973 40.351 89.4981C40.351 89.4981 24.4161 88.8556 22.9138 88.2132C21.4115 87.5707 21.8113 45.8607 26.2117 37.231C26.2117 37.231 33.0629 32.1293 43.0958 32.3705Z" fill="#F24052"/>
<path d="M36.3108 32.8528C36.3108 32.8528 39.5045 37.5205 43.5692 39.672C43.5692 39.672 43.6883 39.0169 43.733 38.0193C43.7478 37.7588 43.7553 37.4684 43.7553 37.1558C43.7553 36.6421 43.733 36.0763 43.666 35.4882C43.6287 35.1606 43.5841 34.8256 43.5171 34.4832C43.1076 32.2722 42.0505 29.9644 39.5566 28.8998C39.5566 28.8998 38.894 29.0561 38.1421 29.674C37.9635 29.8229 37.7848 29.9942 37.6061 30.1952C37.3679 30.4706 37.1297 30.7982 36.9212 31.1927C36.7947 31.4235 36.683 31.6692 36.5862 31.9446C36.4746 32.2201 36.3852 32.5253 36.3108 32.8528Z" fill="#B72E48"/>
<path d="M36.5862 31.9446C38.0527 33.6345 40.435 35.9721 43.7329 38.0193C43.7478 37.7588 43.7552 37.4684 43.7552 37.1558C40.5467 35.1011 38.2761 32.7933 36.9212 31.1927C36.7946 31.4235 36.683 31.6692 36.5862 31.9446Z" fill="#CFD8DC"/>
<path d="M37.6061 30.1951C38.9461 31.6989 40.9561 33.6717 43.6659 35.4881C43.6287 35.1606 43.584 34.8256 43.517 34.4831C41.1348 32.8007 39.3481 31.0363 38.1421 29.674C37.9634 29.8229 37.7847 29.9941 37.6061 30.1951Z" fill="#CFD8DC"/>
<path d="M22.6895 90.8327C22.6776 91.0866 22.665 91.3404 22.6657 91.5794C22.659 92.236 22.7014 92.7586 22.8451 92.8256C23.2948 93.0348 39.3674 94.3339 39.3674 94.3339L39.6317 93.0348L39.7776 92.303L40.0106 91.1461L40.1625 90.4143L40.3479 89.4964C34.6067 88.2495 22.9136 88.2123 22.9136 88.2123C22.9136 88.2123 22.8816 88.4885 22.8377 88.8994C22.8213 89.116 22.7967 89.3699 22.7714 89.6461C22.7409 90.019 22.7089 90.43 22.6895 90.8327Z" fill="#B72E48"/>
<path d="M22.7712 89.6458C29.2635 89.5639 36.4274 90.5488 40.0111 91.1458L40.1623 90.4148C36.5673 89.8177 29.3722 88.8246 22.8374 88.8991C22.8211 89.1157 22.7965 89.3696 22.7712 89.6458Z" fill="#CFD8DC"/>
<path d="M22.6895 90.8327C22.6776 91.0866 22.6649 91.3404 22.6657 91.5794C28.9987 91.4967 35.963 92.4303 39.6317 93.0348L39.7776 92.303C36.0844 91.6985 29.0709 90.7583 22.6895 90.8327Z" fill="#CFD8DC"/>
<path d="M12.4479 42.1557C17.158 43.3744 20.0145 67.3613 17.2846 72.9863C14.5547 78.6114 10.6314 82.2629 3.90829 76.9632C-2.81558 71.6635 0.286542 44.2431 4.62892 42.382C6.66499 41.5095 12.4479 42.1557 12.4479 42.1557Z" fill="#CFD8DC"/>
<path d="M12.5176 40.8929C12.5176 41.3991 12.4952 41.8383 12.4357 42.2254C12.391 42.5902 12.3091 42.9103 12.2049 43.1858C11.5796 44.8012 10.0385 44.8682 7.85731 44.9873C6.01107 45.0841 5.01351 44.5556 4.6934 43.3421C4.58918 42.9848 4.55195 42.5753 4.57429 42.1063C4.57429 41.8011 4.61151 41.4735 4.66362 41.1237C4.70084 40.8408 4.75295 40.5504 4.81251 40.2378C4.93162 39.6943 5.08051 39.1062 5.26663 38.466C5.63885 37.1855 9.40577 36.9398 9.40577 36.9398C10.5448 36.8356 12.1379 37.0738 12.3091 38.3692C12.391 38.9945 12.4506 39.5529 12.4803 40.0591C12.5027 40.3569 12.5176 40.6323 12.5176 40.8929Z" fill="#B72E48"/>
<path d="M2.86818 28.6322C3.463 29.3096 4.44716 31.9465 4.44716 31.9465C4.86033 34.162 5.10004 35.3851 5.8765 36.4013C6.64552 37.4182 6.24054 39.2116 6.24054 39.2116C6.24054 39.2116 9.24886 40.757 11.7785 38.8483C11.7785 38.8483 11.5135 37.0713 11.7785 36.5665C12.2989 35.5585 13.9687 35.0211 14.5389 32.988C15.1092 30.9467 16.8199 28.6731 16.8199 28.6731C16.8199 28.6731 16.3323 27.6153 15.4397 28.26C14.5389 28.9136 13.9687 30.5417 13.4811 30.707C13.3813 30.7397 13.2823 30.765 13.1833 30.7732C13.1833 30.7732 13.1751 30.7732 13.1587 30.7814C12.7865 30.8305 12.4061 30.7479 12.1745 30.5246C12.1582 30.5164 12.1336 30.5 12.1172 30.4754C11.2991 29.5248 11.1085 26.7309 11.142 25.4832C11.1911 23.7471 11.1256 21.3507 10.067 21.7557C9.00915 22.1607 9.97619 23.1277 9.15804 26.9542L8.76125 27.0041C8.6868 27.2765 7.95947 24.6814 7.78602 22.2433C7.66169 20.5653 6.56289 21.1855 6.32317 21.714C6.07527 22.2433 6.44675 23.9124 6.5212 25.1273C6.57926 25.9291 6.64552 26.7644 6.68647 27.2602L6.22416 27.5163C4.55436 24.6069 5.12461 23.4002 4.14938 23.3421C3.18234 23.2848 3.52925 25.7393 4.05037 26.6735C4.27296 27.0785 4.48811 27.9212 4.66156 28.7476C2.95082 26.7726 3.14065 25.7393 2.356 25.8636C1.54604 25.9953 2.27337 27.9547 2.86818 28.6322Z" fill="#FF8B66"/>
<path d="M10.2576 33.1863C10.8361 31.591 12.9027 30.8637 13.1588 30.781C12.7865 30.8309 12.4069 30.7483 12.1753 30.5249C10.1504 31.4339 10.2576 33.1863 10.2576 33.1863Z" fill="#EF6E4B"/>
<path d="M12.5176 40.8929C11.0585 41.6299 8.38588 41.749 6.82254 41.749C6.65132 41.749 6.49498 41.749 6.35354 41.7415C5.64631 41.7267 5.08797 41.481 4.66364 41.1237C4.70086 40.8408 4.75297 40.5504 4.81253 40.2378C5.14753 40.6323 5.63886 40.9822 6.36842 40.9971C8.639 41.0343 11.4753 40.8035 12.4804 40.0591C12.5027 40.3569 12.5176 40.6323 12.5176 40.8929Z" fill="#CFD8DC"/>
<path d="M12.4357 42.2255C12.3911 42.5902 12.3092 42.9104 12.205 43.1858C10.7012 43.8111 8.25937 43.9154 6.79281 43.9154C6.62159 43.9154 6.46525 43.9154 6.32381 43.9079C5.64636 43.9005 5.11035 43.6697 4.69346 43.3421C4.58924 42.9848 4.55201 42.5754 4.57435 42.1063C4.87213 42.6051 5.41558 43.1486 6.33869 43.1635C8.60182 43.2007 11.4307 42.9699 12.4357 42.2255Z" fill="#CFD8DC"/>
<path d="M31.5065 71.0269C31.5065 71.0269 33.2478 72.7629 32.9865 73.6711C32.7244 74.5794 26.5827 81.8482 25.8383 84.0763L23.791 82.9544C23.791 82.9544 26.9385 73.2438 31.5065 71.0269Z" fill="#CFD8DC"/>
<path d="M84.3523 85.9246C82.0891 86.4085 79.9674 86.4457 78.3892 85.7981C78.3892 85.7981 77.5554 77.5347 72.791 72.9861C72.791 72.9861 72.9845 72.3608 73.6098 71.5344C76.3271 73.537 85.8709 80.9815 84.3523 85.9246Z" fill="#B5C4C9"/>
<path d="M71.3813 71.0269C71.3813 71.0269 79.0045 78.0805 78.3568 86.2866C78.3568 86.2866 75.0455 87.5097 74.8884 86.2866C74.7313 85.0635 72.9253 77.916 69.3713 73.6711C68.8196 73.0116 71.3813 71.0269 71.3813 71.0269Z" fill="#CFD8DC"/>
</svg>
